<mxfile host="app.diagrams.net" agent="Mozilla/5.0 (Windows NT 10.0; Win64; x64) AppleWebKit/537.36 (KHTML, like Gecko) Chrome/135.0.0.0 Safari/537.36 Edg/135.0.0.0" version="26.2.13">
  <diagram name="Page-1" id="32V7y95miDZ7JW_7GLXC">
    <mxGraphModel dx="766" dy="781" grid="1" gridSize="10" guides="1" tooltips="1" connect="1" arrows="1" fold="1" page="1" pageScale="1" pageWidth="850" pageHeight="1100" math="0" shadow="0">
      <root>
        <mxCell id="0" />
        <mxCell id="1" parent="0" />
        <mxCell id="wQWK9Id0YcDgdErSSonI-12" value="" style="rounded=1;whiteSpace=wrap;html=1;dashed=1;" vertex="1" parent="1">
          <mxGeometry x="250" y="230" width="290" height="220" as="geometry" />
        </mxCell>
        <mxCell id="wQWK9Id0YcDgdErSSonI-1" value="Dish Controller Board" style="rounded=0;whiteSpace=wrap;html=1;" vertex="1" parent="1">
          <mxGeometry x="335" y="550" width="120" height="110" as="geometry" />
        </mxCell>
        <mxCell id="wQWK9Id0YcDgdErSSonI-2" value="Dish Interface Board&lt;div&gt;(mounted on axis)&lt;/div&gt;" style="rounded=0;whiteSpace=wrap;html=1;" vertex="1" parent="1">
          <mxGeometry x="300" y="260" width="190" height="150" as="geometry" />
        </mxCell>
        <mxCell id="wQWK9Id0YcDgdErSSonI-3" value="" style="endArrow=none;html=1;rounded=0;exitX=0.5;exitY=0;exitDx=0;exitDy=0;entryX=0.5;entryY=1;entryDx=0;entryDy=0;" edge="1" parent="1" source="wQWK9Id0YcDgdErSSonI-1" target="wQWK9Id0YcDgdErSSonI-2">
          <mxGeometry width="50" height="50" relative="1" as="geometry">
            <mxPoint x="370" y="430" as="sourcePoint" />
            <mxPoint x="420" y="380" as="targetPoint" />
          </mxGeometry>
        </mxCell>
        <mxCell id="wQWK9Id0YcDgdErSSonI-4" value="DE15 (VGA)" style="edgeLabel;html=1;align=center;verticalAlign=middle;resizable=0;points=[];rotation=-90;" vertex="1" connectable="0" parent="wQWK9Id0YcDgdErSSonI-3">
          <mxGeometry x="-0.2571" relative="1" as="geometry">
            <mxPoint as="offset" />
          </mxGeometry>
        </mxCell>
        <mxCell id="wQWK9Id0YcDgdErSSonI-7" style="edgeStyle=orthogonalEdgeStyle;rounded=0;orthogonalLoop=1;jettySize=auto;html=1;entryX=0;entryY=0.5;entryDx=0;entryDy=0;" edge="1" parent="1" source="wQWK9Id0YcDgdErSSonI-6" target="wQWK9Id0YcDgdErSSonI-2">
          <mxGeometry relative="1" as="geometry" />
        </mxCell>
        <mxCell id="wQWK9Id0YcDgdErSSonI-6" value="Encoder" style="text;html=1;align=center;verticalAlign=middle;whiteSpace=wrap;rounded=0;" vertex="1" parent="1">
          <mxGeometry x="170" y="320" width="60" height="30" as="geometry" />
        </mxCell>
        <mxCell id="wQWK9Id0YcDgdErSSonI-10" style="edgeStyle=orthogonalEdgeStyle;rounded=0;orthogonalLoop=1;jettySize=auto;html=1;entryX=0;entryY=0.25;entryDx=0;entryDy=0;" edge="1" parent="1" source="wQWK9Id0YcDgdErSSonI-8" target="wQWK9Id0YcDgdErSSonI-2">
          <mxGeometry relative="1" as="geometry" />
        </mxCell>
        <mxCell id="wQWK9Id0YcDgdErSSonI-8" value="Limit Switches" style="text;html=1;align=center;verticalAlign=middle;whiteSpace=wrap;rounded=0;" vertex="1" parent="1">
          <mxGeometry x="140" y="282" width="90" height="30" as="geometry" />
        </mxCell>
        <mxCell id="wQWK9Id0YcDgdErSSonI-11" style="edgeStyle=orthogonalEdgeStyle;rounded=0;orthogonalLoop=1;jettySize=auto;html=1;entryX=0;entryY=0.75;entryDx=0;entryDy=0;" edge="1" parent="1" source="wQWK9Id0YcDgdErSSonI-9" target="wQWK9Id0YcDgdErSSonI-2">
          <mxGeometry relative="1" as="geometry" />
        </mxCell>
        <mxCell id="wQWK9Id0YcDgdErSSonI-9" value="I2C" style="text;html=1;align=center;verticalAlign=middle;resizable=0;points=[];autosize=1;strokeColor=none;fillColor=none;" vertex="1" parent="1">
          <mxGeometry x="190" y="358" width="40" height="30" as="geometry" />
        </mxCell>
        <mxCell id="wQWK9Id0YcDgdErSSonI-13" value="&lt;font style=&quot;font-size: 21px;&quot;&gt;Dish Interface Board&lt;/font&gt;" style="text;html=1;align=center;verticalAlign=middle;resizable=0;points=[];autosize=1;strokeColor=none;fillColor=none;" vertex="1" parent="1">
          <mxGeometry x="290" y="170" width="210" height="40" as="geometry" />
        </mxCell>
      </root>
    </mxGraphModel>
  </diagram>
</mxfile>
